g Mesh1
# Vertex Positions: 24
v 1.999994 1.999998 -11.00001
v 1.999999 3.000002 -8.000007
v 1.999999 1.999999 -8.000007
v 6.000006 3.000002 -7.999996
v 6 1.999998 -11
v 6.000006 1.999999 -7.999996
v 2 0.9999979 -8.000003
v 6 0.9999979 -8.000003
v 2 0.9999985 -5.999997
v 6 0.9999985 -5.999997
v 6 3.000002 -5.999997
v 2 3.000002 -5.999997
v 6.000002 1.999998 8.500007
v 6 3.000002 5.500004
v 6 1.999998 5.500004
v 1.999991 3.000002 5.499993
v 1.999995 1.999998 8.499995
v 1.999991 1.999998 5.499993
v 5.999998 0.9999974 5.500002
v 1.999997 0.9999974 5.500001
v 5.999998 0.999998 3.499996
v 1.999997 0.999998 3.499995
v 1.999997 3.000003 3.499995
v 5.999998 3.000003 3.499996
# Vertex UVs: 26
vt 1.500003 0.5000007
vt 2.145767E-06 -7.748604E-07
vt 2.145767E-06 0.5000007
vt 1.000002 -7.748604E-07
vt -0.4999978 0.5000008
vt 1.000002 0.5000006
vt 1.399999 -1
vt -2.206143E-06 -1.000003
vt 1.676436E-06 1.000001
vt 1.400002 1.000003
vt 2 -0.4999978
vt -2.586842E-06 -0.500003
vt 2.000003 1.000002
vt 2 0.4999991
vt 2 -1.090102E-06
vt -0.9999999 -0.500001
vt -1 0.5000013
vt -3 0.5000013
vt -2.999999 -0.5000009
vt 1.000001 1.000001
vt -1 1.000001
vt -0.9999999 -8.095296E-07
vt -0.5000015 1.000001
vt 0.5000002 1.000001
vt 0.5000013 -1.132489E-06
vt -0.5000013 -7.748605E-07
# Vertex Normals: 8
vn -1 3.552714E-15 -1.192093E-07
vn 1 -3.552714E-15 1.192093E-07
vn 1.941704E-07 0.9486834 -0.3162282
vn -3.552714E-15 -1 4.510729E-08
vn 0 1.421085E-14 -1
vn 0 1 0
vn 0 -7.105427E-15 1
vn -3.449597E-07 0.9486834 0.3162282
# Faces: 20
f 3/3/1 2/2/1 1/1/1 
f 6/6/2 5/5/2 4/4/2 
f 1/10/3 2/9/3 4/8/3 5/7/3 
f 6/13/4 3/9/4 1/12/4 5/11/4 
f 8/2/5 7/15/5 3/14/5 6/3/5 
f 8/19/4 10/18/4 9/17/4 7/16/4 
f 2/16/6 12/17/6 11/18/6 4/19/6 
f 7/2/1 9/4/1 12/20/1 2/9/1 
f 9/22/7 10/4/7 11/20/7 12/21/7 
f 10/26/2 8/25/2 4/24/2 11/23/2 
f 15/3/2 14/2/2 13/1/2 
f 18/6/1 17/5/1 16/4/1 
f 13/10/8 14/9/8 16/8/8 17/7/8 
f 18/13/4 15/9/4 13/12/4 17/11/4 
f 20/2/7 19/15/7 15/14/7 18/3/7 
f 20/19/4 22/18/4 21/17/4 19/16/4 
f 14/16/6 24/17/6 23/18/6 16/19/6 
f 19/2/2 21/4/2 24/20/2 14/9/2 
f 21/22/5 22/4/5 23/20/5 24/21/5 
f 22/26/1 20/25/1 16/24/1 23/23/1 


